<?xml version="1.0" encoding="utf-8"?>
<svg version="1.1" id="Layer_1" xmlns="http://www.w3.org/2000/svg" xmlns:xlink="http://www.w3.org/1999/xlink" x="0px" y="0px"
	 viewBox="0 0 64 64" style="enable-background:new 0 0 64 64;" xml:space="preserve">
<style type="text/css">
	.st0{fill:#FFFFFF;}
</style>
<g>
	<g>
		<circle class="st0" cx="34.32" cy="31.9" r="2.85"/>
		<path class="st0" d="M61.85,2.37c-0.37,1.5-0.87,2.93-1.53,4.23c-0.33,0.65-0.73,1.25-1.13,1.84c-0.43,0.56-0.87,1.11-1.37,1.61
			c-1.96,2-4.46,3.37-7.08,4.54c-2.64,1.15-5.43,2.07-8.27,2.93c-2.84,0.86-5.73,1.65-8.63,2.44l-2.2,0.6
			c-0.8,0.22-1.59,0.47-2.37,0.77c-1.56,0.58-3.1,1.32-4.54,2.24c-2.9,1.81-5.41,4.44-6.97,7.51c-1.59,3.06-2.2,6.45-2.13,9.68
			c0.04,1.62,0.25,3.21,0.6,4.75c0.37,1.54,0.85,3.04,1.56,4.43c-0.1-3.09,0.14-6.09,0.74-8.91c0.61-2.82,1.66-5.43,3.18-7.61
			c1.5-2.19,3.51-3.91,5.8-5.23c1.16-0.64,2.38-1.22,3.67-1.68c0.64-0.23,1.3-0.44,1.96-0.64l2.19-0.63
			c2.94-0.87,5.88-1.82,8.78-2.93c1.45-0.56,2.9-1.17,4.33-1.83c1.42-0.69,2.84-1.41,4.21-2.26c2.72-1.67,5.38-3.8,7.15-6.63
			c0.89-1.4,1.53-2.95,1.84-4.53C61.98,5.49,62.03,3.9,61.85,2.37z"/>
		<path class="st0" d="M25.45,37.52l-3.72,1.85c2.39,4.79,7.19,7.77,12.55,7.77c7.72,0,14.01-6.28,14.01-14.01
			c0-1.71-0.31-3.39-0.91-4.96c0.63-0.65,1.24-1.3,1.83-1.98c0.72-0.83,1.41-1.68,2.04-2.57c0.63-0.89,1.24-1.79,1.72-2.76
			c-0.76,0.76-1.6,1.4-2.45,2.02c-0.86,0.61-1.74,1.18-2.64,1.71c-0.9,0.53-1.82,1.02-2.75,1.49c-0.93,0.46-1.88,0.89-2.82,1.3
			l0.34,0.53c0.98,1.56,1.49,3.36,1.49,5.22c0,5.43-4.42,9.85-9.85,9.85C30.51,42.99,27.13,40.89,25.45,37.52z"/>
		<path class="st0" d="M57.38,37.07l-0.19,0.98l-0.1,0.49l-0.14,0.48l-0.58,1.9c-0.92,2.48-2.1,4.85-3.63,6.98
			c-1.55,2.11-3.37,4-5.4,5.62c-2.07,1.57-4.33,2.86-6.72,3.83c-2.41,0.93-4.94,1.46-7.48,1.74c-2.56,0.17-5.13,0.03-7.64-0.47
			c-2.49-0.58-4.91-1.4-7.16-2.61c-2.23-1.24-4.28-2.78-6.1-4.56c-1.78-1.82-3.32-3.88-4.56-6.1c-1.21-2.25-2.04-4.68-2.61-7.16
			c-0.5-2.5-0.64-5.08-0.47-7.64c0.28-2.55,0.81-5.07,1.74-7.48c0.97-2.39,2.26-4.64,3.83-6.71c1.62-2.03,3.51-3.84,5.62-5.4
			c2.13-1.52,4.5-2.71,6.98-3.63l1.9-0.58l0.48-0.14l0.49-0.1l0.98-0.19c1.3-0.33,2.64-0.37,3.97-0.53
			c-2.68-0.08-5.4,0.13-8.04,0.81c-2.62,0.72-5.16,1.8-7.51,3.23c-2.31,1.49-4.42,3.3-6.27,5.37c-1.8,2.11-3.26,4.5-4.42,7.04
			c-1.12,2.56-1.81,5.3-2.16,8.07c-0.26,2.79-0.18,5.61,0.31,8.38c0.56,2.75,1.49,5.44,2.79,7.93c1.35,2.47,3.03,4.76,4.99,6.78
			c2.03,1.96,4.31,3.64,6.78,4.99c2.5,1.3,5.18,2.23,7.93,2.79c2.77,0.49,5.59,0.57,8.38,0.31c2.78-0.35,5.51-1.04,8.07-2.16
			c2.54-1.16,4.93-2.62,7.04-4.42c2.07-1.85,3.88-3.95,5.37-6.26c1.43-2.35,2.51-4.89,3.23-7.51c0.68-2.64,0.9-5.36,0.81-8.04
			C57.75,34.43,57.71,35.77,57.38,37.07z"/>
	</g>
</g>
</svg>
